<?xml version="1.0" encoding="UTF-8"?>
<svg width="14px" height="14px" viewBox="0 0 14 14" version="1.1" xmlns="http://www.w3.org/2000/svg" xmlns:xlink="http://www.w3.org/1999/xlink">
    <title>形状结合</title>
    <g id="5.数据展示" stroke="none" stroke-width="1" fill="none" fill-rule="evenodd">
        <g id="数据展示-表格（一）" transform="translate(-1033.000000, -3256.000000)" fill="#666666">
            <g id="嵌套表格说明" transform="translate(1020.000000, 3134.000000)">
                <g id="内容" transform="translate(0.000000, 70.000000)">
                    <g id="编组-2" transform="translate(12.000000, 51.000000)">
                        <path d="M8,1.5 C8.41421356,1.5 8.75,1.83578644 8.75,2.25 L8.75,7.249 L13.75,7.25 C14.1642136,7.25 14.5,7.58578644 14.5,8 C14.5,8.41421356 14.1642136,8.75 13.75,8.75 L8.75,8.749 L8.75,13.75 C8.75,14.1642136 8.41421356,14.5 8,14.5 C7.58578644,14.5 7.25,14.1642136 7.25,13.75 L7.25,8.749 L2.25,8.75 C1.83578644,8.75 1.5,8.41421356 1.5,8 C1.5,7.58578644 1.83578644,7.25 2.25,7.25 L7.25,7.249 L7.25,2.25 C7.25,1.83578644 7.58578644,1.5 8,1.5 Z" id="形状结合"></path>
                    </g>
                </g>
            </g>
        </g>
    </g>
</svg>