<?xml version="1.0" encoding="UTF-8"?>
<svg width="16px" height="16px" viewBox="0 0 16 16" version="1.1" xmlns="http://www.w3.org/2000/svg" xmlns:xlink="http://www.w3.org/1999/xlink">
    <title>1.基础/2.图标/2.操作/保存</title>
    <g id="1.基础/2.图标/2.操作/保存" stroke="none" stroke-width="1" fill="none" fill-rule="evenodd">
        <path d="M11.0193752,1.5 C11.3231589,1.5 11.6104718,1.63808972 11.800244,1.87530495 L14.2808688,4.97608601 C14.4227192,5.15339906 14.5,5.37370956 14.5,5.60078106 L14.5,13.5 C14.5,14.0522847 14.0522847,14.5 13.5,14.5 L2.5,14.5 C1.94771525,14.5 1.5,14.0522847 1.5,13.5 L1.5,2.5 C1.5,1.94771525 1.94771525,1.5 2.5,1.5 L11.0193752,1.5 Z M4,3 L3,3 L3,13 L13,13 L13,5.777 L11,3.277 L11,6.25 C11,6.66421356 10.6642136,7 10.25,7 L4.75,7 C4.33578644,7 4,6.66421356 4,6.25 L4,3 Z M9.5,3 L5.5,3 L5.5,5.5 L9.5,5.5 L9.5,3 Z" id="形状结合" fill="#666666"></path>
    </g>
</svg>