<?xml version="1.0" encoding="UTF-8"?>
<svg width="16px" height="16px" viewBox="0 0 16 16" version="1.1" xmlns="http://www.w3.org/2000/svg" xmlns:xlink="http://www.w3.org/1999/xlink">
    <title>1.基础/2.图标/2.操作/编辑</title>
    <g id="1.基础/2.图标/2.操作/编辑" stroke="none" stroke-width="1" fill="none" fill-rule="evenodd">
        <path d="M13.75,13 C14.1642136,13 14.5,13.3357864 14.5,13.75 C14.5,14.1642136 14.1642136,14.5 13.75,14.5 L2.25,14.5 C1.83578644,14.5 1.5,14.1642136 1.5,13.75 C1.5,13.3357864 1.83578644,13 2.25,13 L13.75,13 Z M11.1191649,0.616116524 L13.947592,3.44454365 C14.2404852,3.73743687 14.2404852,4.2123106 13.947592,4.50520382 L6.87652416,11.5762716 C6.77182375,11.680972 6.63847452,11.7523384 6.49328118,11.7813771 L2.95774727,12.4884838 C2.43295642,12.593442 1.97026649,12.1307521 2.07522467,11.6059612 L2.78233145,8.07042732 C2.81137012,7.92523398 2.88273646,7.79188474 2.98743687,7.68718434 L10.0585047,0.616116524 C10.3513979,0.323223305 10.8262716,0.323223305 11.1191649,0.616116524 Z M8.471,4.32444661 L4.21002449,8.58591705 L3.76737565,10.7963329 L5.97637723,10.3550982 L10.239,6.09244661 L8.471,4.32444661 Z M10.5888348,2.20710678 L9.531,3.26344661 L11.299,5.03144661 L12.3566017,3.97487373 L10.5888348,2.20710678 Z" id="形状结合" fill="#666666"></path>
    </g>
</svg>