<?xml version="1.0" encoding="UTF-8"?>
<svg width="16px" height="16px" viewBox="0 0 16 16" version="1.1" xmlns="http://www.w3.org/2000/svg" xmlns:xlink="http://www.w3.org/1999/xlink">
    <title>1.基础/2.图标/2.操作/删除</title>
    <g id="1.基础/2.图标/2.操作/删除" stroke="none" stroke-width="1" fill="none" fill-rule="evenodd">
        <path d="M10,1 C10.3441507,1 10.6441381,1.23422303 10.7276069,1.56809828 L11.21,3.5 L14,3.5 C14.4142136,3.5 14.75,3.83578644 14.75,4.25 C14.75,4.66421356 14.4142136,5 14,5 L13.203,5 L12.2460861,14.3265216 C12.2104145,14.6743199 11.9408391,14.9463514 11.6031758,14.9929373 L11.5,15 L4.5,15 C4.11541496,15 3.7931527,14.7090997 3.75391392,14.3265216 L3.75391392,14.3265216 L2.796,5 L2,5 C1.58578644,5 1.25,4.66421356 1.25,4.25 C1.25,3.83578644 1.58578644,3.5 2,3.5 L4.789,3.5 L5.27239312,1.56809828 C5.35586194,1.23422303 5.65584927,1 6,1 L10,1 Z M11.694,5 L4.305,5 L5.177,13.5 L10.822,13.5 L11.694,5 Z M9.25,10.5 C9.66421356,10.5 10,10.8357864 10,11.25 C10,11.6642136 9.66421356,12 9.25,12 L6.75,12 C6.33578644,12 6,11.6642136 6,11.25 C6,10.8357864 6.33578644,10.5 6.75,10.5 L9.25,10.5 Z M9.414,2.5 L6.585,2.5 L6.335,3.5 L9.664,3.5 L9.414,2.5 Z" id="形状结合" fill="#666666"></path>
    </g>
</svg>